<?xml version="1.0" encoding="utf-8"?>
<!DOCTYPE svg PUBLIC "-//W3C//DTD SVG 20010904//EN" "http://www.w3.org/TR/2001/REC-SVG-20010904/DTD/svg10.dtd">
<svg version="1.0" xmlns="http://www.w3.org/2000/svg" width="400pt" height="400pt" viewBox="0 0 400 400" style="" preserveAspectRatio="xMidYMid meet">
<g fill="#007E30FE" stroke="#007E30FE">
<path d="M 82.787 183.210 C 81.440 185.570 79.725 189.075 78.976 191.000 C 78.226 192.925 77.319 194.725 76.958 195.000 C 76.284 195.514 70.027 208.351 69.778 209.730 C 69.701 210.154 68.370 212.501 66.819 214.946 C 65.269 217.391 63.990 219.866 63.978 220.446 C 63.966 221.026 63.076 222.625 62.000 224.000 C 60.924 225.375 60.034 227.513 60.022 228.750 C 60.002 230.815 60.455 231.000 65.525 231.000 C 71.003 231.000 71.072 230.962 73.767 226.500 L 76.485 222.000 84.663 222.000 L 92.841 222.000 93.614 225.250 C 94.039 227.038 94.412 228.950 94.444 229.500 C 94.475 230.050 97.538 230.633 101.250 230.796 C 108.956 231.133 108.930 231.177 107.034 221.178 C 106.502 218.375 105.097 209.651 103.911 201.791 C 102.725 193.931 101.472 185.700 101.127 183.500 L 100.500 179.500 92.868 179.210 L 85.237 178.920 82.787 183.210 M 90.438 199.250 C 90.729 201.038 91.087 204.525 91.234 207.000 L 91.500 211.500 86.327 211.500 L 81.154 211.500 84.827 203.762 C 86.847 199.506 88.817 196.018 89.205 196.012 C 89.592 196.005 90.147 197.463 90.438 199.250 "/></g>
<g fill="#007E30FE" stroke="#007E30FE">
<path d="M 282.606 197.709 C 277.381 208.044 271.699 219.303 269.980 222.728 C 268.261 226.153 267.139 229.416 267.486 229.978 C 267.834 230.540 270.551 231.000 273.524 231.000 C 277.906 231.000 279.132 230.621 280.000 229.000 C 280.589 227.900 280.833 227.000 280.542 227.000 C 280.251 227.000 280.991 225.875 282.187 224.500 C 284.134 222.261 285.121 222.000 291.645 222.000 C 299.574 222.000 301.000 222.981 301.000 228.434 C 301.000 230.956 301.127 231.000 308.341 231.000 L 315.683 231.000 313.819 219.750 C 312.793 213.563 310.940 201.975 309.701 194.000 L 307.446 179.500 299.776 179.209 L 292.106 178.918 282.606 197.709 M 298.951 205.688 C 300.195 210.503 298.239 212.671 293.094 212.180 C 290.842 211.966 289.000 211.436 289.000 211.004 C 289.000 210.067 291.819 203.883 294.471 199.000 L 296.372 195.500 297.250 199.000 C 297.732 200.925 298.498 203.935 298.951 205.688 "/></g>
<g fill="#007E30FE" stroke="#007E30FE">
<path d="M 38.296 179.436 C 35.434 180.167 32.365 181.492 31.475 182.382 C 30.585 183.272 29.327 184.005 28.679 184.011 C 26.678 184.029 21.269 190.307 18.313 196.041 C 15.798 200.922 15.500 202.526 15.500 211.194 L 15.500 220.889 19.000 224.564 C 23.748 229.549 27.412 230.912 36.653 231.134 C 46.754 231.377 54.923 229.383 55.424 226.553 C 55.624 225.424 56.743 220.225 57.910 215.000 C 59.077 209.775 60.025 204.916 60.016 204.202 C 60.004 203.247 58.354 202.983 53.755 203.202 L 47.509 203.500 45.505 211.427 C 44.402 215.787 42.913 219.545 42.196 219.778 C 39.617 220.617 33.729 218.820 31.388 216.479 C 25.619 210.710 30.264 196.519 39.624 191.320 C 41.549 190.251 53.318 190.131 58.381 191.129 C 59.867 191.422 60.636 190.412 62.051 186.306 C 63.640 181.692 63.672 180.972 62.331 179.860 C 60.204 178.094 44.631 177.820 38.296 179.436 "/></g>
<g fill="#007E30FE" stroke="#007E30FE">
<path d="M 242.526 182.250 C 242.178 184.038 241.467 187.525 240.948 190.000 C 238.331 202.461 236.648 211.253 235.494 218.500 C 234.793 222.900 233.971 227.513 233.667 228.750 C 233.138 230.906 233.381 231.000 239.510 231.000 L 245.906 231.000 246.947 227.250 C 247.520 225.188 247.991 222.299 247.994 220.832 C 248.003 216.681 249.014 215.000 251.502 215.000 C 252.760 215.000 256.720 214.095 260.301 212.989 C 267.310 210.824 271.967 206.716 274.625 200.355 C 276.598 195.632 276.338 189.067 274.027 185.276 C 271.067 180.422 266.519 179.000 253.957 179.000 L 243.159 179.000 242.526 182.250 M 260.250 190.392 C 263.866 193.137 261.243 202.220 256.489 203.413 C 252.418 204.435 251.724 203.361 252.491 197.222 C 252.872 194.178 253.415 191.082 253.699 190.343 C 254.354 188.635 257.971 188.662 260.250 190.392 "/></g>
<g fill="#007E30FE" stroke="#007E30FE">
<path d="M 361.266 179.115 C 352.162 181.745 347.000 188.004 347.000 196.413 C 347.000 202.803 348.531 205.405 354.699 209.501 C 359.297 212.554 360.076 213.510 359.811 215.778 C 359.370 219.574 355.723 221.203 349.315 220.468 L 344.129 219.872 343.070 223.686 C 340.915 231.448 341.503 232.005 351.832 231.990 C 364.719 231.971 373.415 225.252 374.588 214.408 C 375.009 210.516 374.681 208.804 373.005 206.137 C 371.843 204.288 370.678 202.989 370.416 203.251 C 370.154 203.513 367.864 201.822 365.329 199.494 C 361.419 195.905 360.818 194.863 361.374 192.646 C 362.150 189.556 365.174 188.534 371.449 189.241 L 375.778 189.729 376.428 184.832 C 376.785 182.138 376.809 179.499 376.480 178.967 C 375.734 177.761 365.611 177.859 361.266 179.115 "/></g>
<g fill="#FEEE00FE" stroke="#FEEE00FE">
<path d="M 196.023 154.121 C 195.262 156.529 194.350 158.950 193.995 159.500 C 193.640 160.050 192.801 162.525 192.129 165.000 C 191.457 167.475 190.535 170.400 190.078 171.500 C 189.622 172.600 188.753 174.738 188.146 176.250 L 187.043 179.000 170.866 179.000 L 154.690 179.000 156.595 181.122 C 159.290 184.124 169.642 192.000 170.893 192.000 C 173.452 192.000 170.136 195.522 163.121 200.253 C 158.930 203.081 154.628 206.205 153.561 207.197 C 152.495 208.189 151.318 209.000 150.946 209.000 C 149.498 209.000 145.012 213.210 145.544 214.071 C 146.076 214.933 152.123 211.349 152.833 209.750 C 153.017 209.338 153.804 209.000 154.583 209.000 C 155.363 209.000 156.000 208.475 156.000 207.833 C 156.000 207.192 156.287 206.954 156.639 207.305 C 156.990 207.657 158.652 206.788 160.332 205.374 C 163.018 203.114 166.502 201.236 168.000 201.241 C 168.275 201.242 170.882 199.838 173.794 198.121 C 176.706 196.405 179.412 195.000 179.809 195.000 C 180.205 195.000 182.098 194.161 184.015 193.135 C 185.932 192.109 190.650 190.121 194.500 188.718 C 198.350 187.314 203.188 185.448 205.250 184.570 C 207.313 183.692 209.000 183.156 209.000 183.379 C 209.000 183.603 212.263 182.729 216.250 181.437 L 223.500 179.089 215.719 179.045 C 209.213 179.007 207.845 178.713 207.374 177.250 C 205.950 172.828 202.751 164.332 201.920 162.764 C 201.414 161.809 201.000 160.340 201.000 159.500 C 201.000 158.660 200.596 157.191 200.103 156.236 C 199.609 155.281 198.801 153.429 198.306 152.121 C 197.461 149.888 197.320 150.011 196.023 154.121 "/></g>
<g fill="#007E30FE" stroke="#007E30FE">
<path d="M 130.000 179.579 C 122.525 181.970 118.737 186.537 117.425 194.741 C 116.553 200.194 119.245 205.004 125.500 209.170 C 129.118 211.580 130.586 213.241 130.810 215.183 C 131.238 218.887 128.252 220.270 120.743 219.843 C 114.087 219.465 114.388 219.166 113.296 227.250 C 113.018 229.313 113.175 231.038 113.645 231.083 C 114.115 231.129 115.598 231.285 116.940 231.430 C 118.715 231.622 121.037 230.170 125.467 226.097 C 128.816 223.019 133.230 219.099 135.278 217.388 C 137.325 215.676 139.000 213.737 139.000 213.079 C 139.000 212.420 139.377 212.115 139.837 212.399 C 141.178 213.228 145.000 210.055 145.000 208.112 C 145.000 206.455 143.463 204.924 135.250 198.403 C 132.970 196.592 132.000 194.986 132.000 193.018 C 132.000 189.607 133.362 189.000 141.021 189.000 L 146.877 189.000 147.542 184.571 C 147.907 182.135 147.908 179.660 147.544 179.071 C 146.602 177.547 135.333 177.873 130.000 179.579 "/></g>
<g fill="#007E30FE" stroke="#007E30FE">
<path d="M 328.511 183.750 C 328.174 186.363 327.032 192.775 325.973 198.000 C 320.731 223.863 320.000 227.697 320.000 229.332 C 320.000 230.858 320.830 231.055 326.177 230.798 L 332.355 230.500 334.100 222.000 C 337.152 207.132 341.741 182.236 341.980 179.250 C 341.991 179.113 339.103 179.000 335.561 179.000 L 329.123 179.000 328.511 183.750 "/></g>
<g fill="#FEEE00FE" stroke="#FEEE00FE">
<path d="M 206.000 207.141 C 204.075 207.682 200.700 208.492 198.500 208.942 C 196.300 209.392 190.675 211.209 186.000 212.979 C 181.325 214.749 176.713 216.430 175.750 216.715 C 174.788 217.000 174.000 217.631 174.000 218.117 C 174.000 218.602 173.528 219.000 172.952 219.000 C 172.375 219.000 170.041 219.900 167.764 221.000 C 165.487 222.100 163.249 223.000 162.791 223.000 C 162.332 223.000 160.111 224.238 157.854 225.750 C 152.717 229.192 155.080 229.151 164.462 225.634 C 168.291 224.199 171.749 223.356 172.145 223.762 C 172.542 224.168 173.009 226.273 173.183 228.439 C 173.480 232.132 173.605 232.273 175.179 230.689 C 176.102 229.760 177.317 229.000 177.879 229.000 C 178.441 229.000 179.260 228.386 179.700 227.635 C 180.140 226.885 181.850 225.519 183.500 224.600 C 185.150 223.681 188.750 221.147 191.500 218.969 C 197.186 214.467 198.700 214.190 202.273 217.000 C 203.671 218.100 205.307 219.000 205.908 219.000 C 206.508 219.000 207.003 219.338 207.007 219.750 C 207.014 220.578 214.149 225.662 214.696 225.229 C 214.885 225.080 215.593 225.411 216.270 225.964 C 216.946 226.517 218.986 228.161 220.802 229.618 L 224.105 232.266 223.398 229.383 C 223.009 227.797 222.310 226.350 221.845 226.167 C 221.380 225.983 221.000 224.521 221.000 222.917 C 221.000 221.313 220.550 220.000 220.000 220.000 C 219.450 220.000 219.000 218.740 219.000 217.200 C 219.000 215.660 218.585 213.973 218.077 213.450 C 217.569 212.928 217.007 211.150 216.827 209.500 C 216.537 206.840 216.103 206.481 213.000 206.329 C 211.075 206.236 207.925 206.601 206.000 207.141 "/></g>
<g fill="#FEEE00FE" stroke="#FEEE00FE">
<path d="M 224.500 185.937 C 223.400 186.405 220.700 187.265 218.500 187.849 C 210.889 189.867 200.490 193.073 198.000 194.168 C 196.625 194.773 194.600 195.617 193.500 196.044 C 184.856 199.398 168.173 207.597 165.921 209.597 C 165.053 210.369 164.036 211.000 163.662 211.000 C 163.144 211.000 147.429 220.888 145.067 222.701 C 144.828 222.884 145.198 223.588 145.888 224.267 C 146.885 225.247 147.537 225.016 149.071 223.139 C 150.132 221.841 151.000 221.076 151.000 221.440 C 151.000 221.804 152.505 220.954 154.344 219.551 C 156.184 218.148 158.119 217.000 158.645 217.000 C 160.633 217.000 164.985 214.450 164.992 213.281 C 164.996 212.611 165.608 212.296 166.351 212.581 C 167.094 212.866 170.581 211.748 174.101 210.096 C 184.178 205.367 200.091 200.810 215.309 198.295 C 217.954 197.858 220.061 197.090 219.991 196.588 C 219.921 196.087 221.145 195.138 222.711 194.479 C 224.277 193.821 227.345 191.531 229.529 189.391 L 233.500 185.500 230.000 185.293 C 228.075 185.179 225.600 185.469 224.500 185.937 "/></g>
<g fill="#007E30FE" stroke="#007E30FE">
<path d="M 339.500 163.343 C 338.000 165.242 336.072 168.311 335.317 170.000 C 334.948 170.825 334.163 171.831 333.573 172.235 C 332.983 172.639 334.525 172.928 337.000 172.877 C 341.125 172.792 341.909 172.334 346.401 167.392 L 351.302 162.000 345.901 162.038 C 342.778 162.060 340.078 162.610 339.500 163.343 "/></g>
</svg>
